<svg width="27" height="25" viewBox="0 0 27 25" fill="none" xmlns="http://www.w3.org/2000/svg">
<path d="M13.4333 0C6.00793 0 0 4.79014 0 10.6827C0 14.5017 2.5098 17.8482 6.29402 19.738C6.08595 20.4598 4.96759 24.3444 4.92858 24.6463C4.92858 24.6463 4.90257 24.8825 5.04562 24.9612C5.18866 25.04 5.37072 24.9744 5.37072 24.9744C5.78685 24.9087 10.2733 21.7459 11.0405 21.1947C11.8208 21.2997 12.614 21.3654 13.4203 21.3654C20.8327 21.3654 26.8536 16.5752 26.8536 10.6827C26.8536 4.79014 20.8457 0 13.4333 0Z" fill="#010101"/>
<path d="M6.00804 14.4225C5.5789 14.4225 5.22779 14.0813 5.22779 13.6744V9.02863H4.0184C3.60227 9.02863 3.26416 8.68742 3.26416 8.26746C3.26416 7.8475 3.60227 7.50629 4.0184 7.50629H7.98467C8.40081 7.50629 8.73891 7.8475 8.73891 8.26746C8.73891 8.68742 8.40081 9.02863 7.98467 9.02863H6.77529V13.6744C6.77529 14.0813 6.42417 14.4225 5.99504 14.4225H6.00804ZM12.8092 14.4225C12.4841 14.4225 12.237 14.2912 12.159 14.0813L11.7689 13.0707H9.40213L9.012 14.0813C8.93398 14.2912 8.6869 14.4225 8.36179 14.4225C8.19274 14.4225 8.02368 14.3831 7.86764 14.3175C7.65957 14.2125 7.4515 13.95 7.68558 13.202L9.54517 8.28058C9.67521 7.9 10.0783 7.51941 10.5725 7.50629C11.0797 7.50629 11.4698 7.9 11.5998 8.28058L13.4464 13.202C13.6805 13.9369 13.4724 14.2125 13.2644 14.3175C13.1083 14.3831 12.9393 14.4225 12.7702 14.4225H12.8092ZM11.3788 11.6796L10.5985 9.46172L9.81826 11.6796H11.3658H11.3788ZM14.7338 14.3175C14.3307 14.3175 13.9926 13.9894 13.9926 13.5957V8.28058C13.9926 7.8475 14.3437 7.49316 14.7859 7.49316C15.228 7.49316 15.5791 7.8475 15.5791 8.28058V12.8739H17.2306C17.6338 12.8739 17.9719 13.202 17.9719 13.5957C17.9719 13.9894 17.6338 14.3175 17.2306 14.3175H14.7468H14.7338ZM19.0382 14.4225C18.6091 14.4225 18.258 14.0681 18.258 13.635V8.28058C18.258 7.8475 18.6091 7.49316 19.0382 7.49316C19.4674 7.49316 19.8185 7.8475 19.8185 8.28058V9.96042L21.9772 7.78188C22.0942 7.66377 22.2372 7.61128 22.4063 7.61128C22.6014 7.61128 22.7964 7.69002 22.9395 7.8475C23.0695 7.97874 23.1605 8.16247 23.1735 8.3462C23.1735 8.52994 23.1215 8.70054 23.0045 8.81866L21.2359 10.6035L23.1475 13.1495C23.2776 13.3201 23.3296 13.5169 23.2906 13.7269C23.2646 13.9369 23.1605 14.1206 22.9915 14.2387C22.8614 14.3437 22.6924 14.3962 22.5233 14.3962C22.2763 14.3962 22.0552 14.2781 21.8991 14.0813L20.0785 11.6534L19.8055 11.929V13.635C19.8055 14.0681 19.4543 14.4225 19.0252 14.4225H19.0382Z" fill="#FFEB02"/>
</svg>
