<svg width="27" height="25" viewBox="0 0 27 25" fill="none" xmlns="http://www.w3.org/2000/svg">
<path d="M24.0898 3.03337C23.4845 2.38873 22.7659 1.87736 21.975 1.52847C21.1841 1.17958 20.3364 1 19.4803 1C18.6242 1 17.7764 1.17958 16.9855 1.52847C16.1946 1.87736 15.476 2.38873 14.8708 3.03337L13.9792 3.9826C13.7817 4.19284 13.4478 4.19284 13.2503 3.9826L12.3587 3.03337C11.1362 1.73186 9.47813 1.00067 7.74924 1.00067C6.02036 1.00067 4.36228 1.73186 3.13977 3.03337C1.91727 4.33488 1.23047 6.10011 1.23047 7.94072C1.23047 9.78133 1.91727 11.5466 3.13977 12.8481L13.2503 23.612C13.4478 23.8222 13.7817 23.8222 13.9792 23.612L24.0898 12.8481C24.6953 12.2037 25.1756 11.4387 25.5033 10.5967C25.831 9.75467 25.9997 8.85216 25.9997 7.94072C25.9997 7.02928 25.831 6.12677 25.5033 5.28475C25.1756 4.44273 24.6953 3.6777 24.0898 3.03337Z" fill="#FF7800" stroke="#FF7800" stroke-linecap="round" stroke-linejoin="round"/>
</svg>
