<svg width="20" height="19" viewBox="0 0 20 19" fill="none" xmlns="http://www.w3.org/2000/svg">
<g id="Group">
<path id="Vector" d="M3.16185 13.0688L6.425 16.3181C6.62135 16.5136 6.93969 16.5136 7.13604 16.3181L15.7827 7.70796C15.9791 7.51245 15.9791 7.19545 15.7827 6.99994L12.5196 3.75059C12.3232 3.55507 12.0049 3.55507 11.8086 3.75059L3.16186 12.3607C2.96551 12.5562 2.96551 12.8732 3.16185 13.0688Z" fill="#B9B9B9"/>
<path id="Vector_2" d="M5.1806 17.0302L2.43328 14.2945C2.16393 14.0263 1.69707 14.1515 1.58933 14.5091L0.529902 18.2997C0.422163 18.6752 0.763338 19.0149 1.15838 18.9255L4.96512 17.8706C5.3422 17.7633 5.4679 17.2984 5.1806 17.0302Z" fill="#B9B9B9"/>
<path id="Vector_3" d="M16.7443 6.00561L13.4939 2.7689C13.2907 2.56661 13.3034 2.25053 13.4939 2.06088L14.8779 0.682748C15.2588 0.303446 15.8682 0.303448 16.2492 0.682749L18.8394 3.262C19.2203 3.6413 19.2203 4.24817 18.8394 4.62748L17.4554 6.0056C17.2522 6.2079 16.9348 6.19526 16.7443 6.00561Z" fill="#B9B9B9"/>
</g>
</svg>
