<svg width="109" height="43" viewBox="0 0 109 43" fill="none" xmlns="http://www.w3.org/2000/svg">
<path d="M93.5576 0H14.902C6.70055 0 0 6.70209 0 14.9055V15.8884C0 24.0918 6.70055 30.7939 14.902 30.7939H45.7782L54.2298 42.2321L62.6815 30.7939H93.5576C101.759 30.7939 108.46 24.0918 108.46 15.8884V14.9055C108.46 6.70209 101.759 0 93.5576 0Z" fill="url(#paint0_linear_2409_46)"/>
<path d="M29.2075 9.98828V11.1602H30.3648V9.98828H32.1079V14.6025H32.9429V9.98828H34.686V11.1602H35.8433V9.98828H37.5864V14.998H33.4409V16.0088H38.5972V17.4736H26.439V16.0088H31.5659V14.998H27.4204V9.98828H29.2075ZM29.2075 13.5332H30.3648V12.5518H29.2075V13.5332ZM34.686 13.5332H35.8433V12.5518H34.686V13.5332ZM29.7056 18.1621V19.085H35.2573V18.1621H37.1323V22.9521H27.8599V18.1621H29.7056ZM29.7056 21.4873H35.2573V20.5205H29.7056V21.4873ZM50.7401 9.76855V23.0986H48.8504V9.76855H50.7401ZM46.741 11.1602C46.741 15.2031 45.3201 18.5576 40.5594 20.8135L39.5779 19.3193C43.0203 17.6934 44.5364 15.584 44.8367 12.625H40.2957V11.1602H46.741ZM63.1466 9.76855V14.9834H65.1095V16.5215H63.1466V23.0986H61.3009V9.76855H63.1466ZM60.3927 11.7607V13.2549H52.5558V11.7607H55.5734V9.97363H57.4484V11.7607H60.3927ZM56.5109 14.002C58.4591 14.002 59.9093 15.3203 59.9093 17.1807C59.9093 19.041 58.4591 20.3594 56.5109 20.3594C54.548 20.3594 53.0978 19.041 53.0978 17.1807C53.0978 15.3203 54.548 14.002 56.5109 14.002ZM56.5109 15.5107C55.5734 15.5254 54.8849 16.1553 54.8849 17.1807C54.8849 18.2207 55.5734 18.8359 56.5109 18.8213C57.4484 18.8359 58.1222 18.2207 58.1222 17.1807C58.1222 16.1553 57.4484 15.5254 56.5109 15.5107ZM76.9301 9.76855V23.0986H75.0405V9.76855H76.9301ZM72.9311 11.1602C72.9311 15.2031 71.5102 18.5576 66.7494 20.8135L65.768 19.3193C69.2104 17.6934 70.7265 15.584 71.0268 12.625H66.4858V11.1602H72.9311ZM81.8513 11.1455L81.6609 18.5723H79.7859L79.5954 11.1455H81.8513ZM80.738 21.8828C80.0495 21.8828 79.4929 21.3262 79.5076 20.6523C79.4929 19.9785 80.0495 19.4365 80.738 19.4365C81.3826 19.4365 81.9538 19.9785 81.9538 20.6523C81.9538 21.3262 81.3826 21.8828 80.738 21.8828Z" fill="black"/>
<defs>
<linearGradient id="paint0_linear_2409_46" x1="54.2298" y1="42.2679" x2="54.2298" y2="0" gradientUnits="userSpaceOnUse">
<stop stop-color="#FF7801"/>
<stop offset="0.07" stop-color="#FF973C"/>
<stop offset="0.14" stop-color="#FFB36F"/>
<stop offset="0.21" stop-color="#FFCA9B"/>
<stop offset="0.28" stop-color="#FFDDBF"/>
<stop offset="0.35" stop-color="#FFECDB"/>
<stop offset="0.42" stop-color="#FFF6EF"/>
<stop offset="0.49" stop-color="#FFFCFB"/>
<stop offset="0.56" stop-color="white"/>
</linearGradient>
</defs>
</svg>
