<svg width="35" height="33" viewBox="0 0 35 33" fill="none" xmlns="http://www.w3.org/2000/svg">
<path d="M16.8428 0.888123C17.0274 0.521005 17.5515 0.521005 17.7362 0.888123L22.5146 10.3889C22.5881 10.5351 22.7284 10.636 22.8903 10.6592L33.5613 12.19C33.9742 12.2492 34.1373 12.7581 33.8358 13.0463L26.1272 20.415C26.0066 20.5303 25.9515 20.6982 25.9802 20.8625L27.8009 31.2812C27.8721 31.6884 27.4464 32.0012 27.0791 31.8116L17.5188 26.8773C17.3749 26.8031 17.204 26.8031 17.0602 26.8773L7.49988 31.8116C7.13252 32.0012 6.70685 31.6884 6.77802 31.2812L8.59877 20.8625C8.6275 20.6982 8.57234 20.5303 8.45173 20.415L0.743152 13.0463C0.441647 12.7581 0.604778 12.2492 1.01765 12.19L11.6886 10.6592C11.8505 10.636 11.9908 10.5351 12.0643 10.3889L16.8428 0.888123Z" fill="#FF7800" stroke="#FF7800" stroke-linecap="round" stroke-linejoin="round"/>
</svg>
