<svg width="23" height="23" viewBox="0 0 23 23" fill="none" xmlns="http://www.w3.org/2000/svg">
<g id="Group">
<path id="Vector" d="M5.69804 17.692H0.679066C0.368613 17.692 0.116943 17.9426 0.116943 18.2518V21.6502C0.116943 21.9594 0.368613 22.21 0.679066 22.21H5.69804C6.0085 22.21 6.26016 21.9594 6.26016 21.6502V18.2518C6.26016 17.9426 6.0085 17.692 5.69804 17.692Z" fill="#B9B9B9"/>
<path id="Vector_2" d="M22.3211 14.0337H17.3021C16.9917 14.0337 16.74 14.2843 16.74 14.5934V21.6303C16.74 21.9394 16.9917 22.19 17.3021 22.19H22.3211C22.6315 22.19 22.8832 21.9394 22.8832 21.6303V14.5934C22.8832 14.2843 22.6315 14.0337 22.3211 14.0337Z" fill="#B9B9B9"/>
<path id="Vector_3" d="M14.0098 10.3553H8.99083C8.68038 10.3553 8.42871 10.606 8.42871 10.9151V21.6503C8.42871 21.9594 8.68038 22.21 8.99083 22.21H14.0098C14.3203 22.21 14.5719 21.9594 14.5719 21.6503V10.9151C14.5719 10.606 14.3203 10.3553 14.0098 10.3553Z" fill="#B9B9B9"/>
<path id="Vector_4" d="M11.8612 0.239892L12.845 2.37893L15.1938 2.63881C15.5351 2.67879 15.6757 3.0986 15.4147 3.3385L13.6681 4.91779L14.1499 7.21675C14.2302 7.5566 13.8488 7.81648 13.5476 7.65655L11.4999 6.49708L9.45214 7.65655C9.151 7.83647 8.78964 7.5566 8.84987 7.21675L9.33168 4.91779L7.58508 3.3385C7.3241 3.0986 7.46463 2.67879 7.80592 2.63881L10.1548 2.37893L11.1385 0.239892C11.279 -0.079964 11.7408 -0.079964 11.8813 0.239892H11.8612Z" fill="#B9B9B9"/>
</g>
</svg>
