<svg width="94" height="103" viewBox="0 0 94 103" fill="none" xmlns="http://www.w3.org/2000/svg">
<g clip-path="url(#clip0_3402_585)">
<path d="M45.8826 88.4438C56.1364 88.4438 64.4488 80.7373 64.4488 71.2307C64.4488 61.7242 56.1364 54.0176 45.8826 54.0176C35.6287 54.0176 27.3163 61.7242 27.3163 71.2307C27.3163 80.7373 35.6287 88.4438 45.8826 88.4438Z" fill="#FF7800"/>
<path d="M35.4819 35.0425C35.2044 35.2773 34.7223 36.5687 34.5908 36.9062C33.3346 40.0759 26.1038 61.618 27.3601 71.1711C28.7186 81.6193 37.3371 61.2071 37.3371 61.2071L39.6305 34.8224C39.6305 34.8224 38.345 32.5772 35.4819 35.0425Z" fill="#FF7800"/>
<path d="M56.1956 35.0435C56.4731 35.2783 56.9552 36.5697 57.0866 36.9072C58.3429 40.0769 65.5736 61.619 64.3174 71.172C62.9589 81.6202 54.3404 61.2081 54.3404 61.2081L52.047 34.8234C52.047 34.8234 53.3325 32.5782 56.1956 35.0435Z" fill="#FF7800"/>
<path d="M48.2197 36.2317L49.2422 54.9857C49.3153 56.4091 48.1905 57.5977 46.7735 57.5977H44.7139C43.2969 57.5977 42.1721 56.4091 42.2452 54.9857L43.2677 36.2317C43.3408 34.911 44.4217 33.8838 45.7364 33.8838C47.0511 33.8838 48.1321 34.911 48.2051 36.2317H48.2197Z" fill="#FF7800"/>
<path d="M40.3463 97.0425C40.0833 99.273 39.835 101.283 39.6305 103H52.0323C51.8717 101.65 51.6672 99.8893 51.3312 97.0425C50.4693 89.6319 52.8358 84.6572 52.8358 84.6572H38.8417C38.8417 84.6572 41.2081 89.6319 40.3463 97.0425Z" fill="#FF7800"/>
<path d="M77.2304 51.3753L82.2554 50.4948L84.7387 46.0191C85.0309 45.5055 85.7613 45.5055 86.0388 46.0338L88.4198 50.5535L93.4156 51.5367C93.9999 51.6541 94.2191 52.3585 93.81 52.7841L90.2604 56.4527L90.8739 61.53C90.947 62.117 90.3334 62.5426 89.8076 62.2931L85.2354 60.0332L80.6194 62.1904C80.0789 62.4398 79.4946 61.9996 79.5676 61.4126L80.298 56.3499L76.836 52.5933C76.4416 52.1531 76.6753 51.4487 77.2596 51.346L77.2304 51.3753Z" fill="#FF7800"/>
<path d="M65.2377 24.4331L71.4897 23.3472L74.5865 17.7709C74.9371 17.1253 75.872 17.1399 76.208 17.7856L79.1733 23.4206L85.3962 24.6532C86.1119 24.8 86.3895 25.6805 85.8782 26.2087L81.4521 30.7872L82.2117 37.1119C82.2993 37.8456 81.5398 38.3739 80.8824 38.051L75.1854 35.2335L69.43 37.919C68.7581 38.2271 68.0277 37.6695 68.13 36.9504L69.0356 30.6404L64.7118 25.9593C64.2151 25.4163 64.5073 24.5359 65.2377 24.4185V24.4331Z" fill="#FF7800"/>
<path d="M16.7695 51.2581L11.7445 50.3777L9.26121 45.9019C8.96906 45.3883 8.23868 45.3883 7.96113 45.9166L5.58009 50.4363L0.58429 51.4195C-1.47503e-05 51.5369 -0.219129 52.2413 0.189884 52.6669L3.73953 56.3355L3.12601 61.4128C3.05298 61.9998 3.6665 62.4254 4.19237 62.1759L8.76455 59.916L13.3806 62.0732C13.921 62.3227 14.5053 61.8824 14.4323 61.2954L13.7019 56.2328L17.1639 52.4761C17.5583 52.0359 17.3246 51.3315 16.7403 51.2288L16.7695 51.2581Z" fill="#FF7800"/>
<path d="M26.4398 24.4331L20.1877 23.3472L17.0909 17.7709C16.7403 17.1253 15.8054 17.1399 15.4694 17.7856L12.5041 23.4206L6.28126 24.6532C5.56549 24.8 5.28794 25.6805 5.79921 26.2087L10.2253 30.7872L9.46572 37.1119C9.37807 37.8456 10.1377 38.3739 10.795 38.051L16.492 35.2335L22.2474 37.919C22.9193 38.2271 23.6497 37.6695 23.5475 36.9504L22.6418 30.6404L26.9656 25.9593C27.4623 25.4163 27.1702 24.5359 26.4398 24.4185V24.4331Z" fill="#FF7800"/>
<path d="M33.5099 8.73153L41.1642 7.39616L44.9476 0.587211C45.3858 -0.20521 46.5106 -0.190536 46.9343 0.61656L50.5569 7.51355L58.1821 9.02502C59.0586 9.20112 59.3946 10.287 58.781 10.9327L53.3616 16.5237L54.2965 24.2718C54.3987 25.1669 53.4785 25.8273 52.675 25.4311L45.7072 21.9826L38.6663 25.2696C37.8483 25.6512 36.9426 24.9762 37.0741 24.081L38.1843 16.3622L32.8963 10.6392C32.2828 9.97886 32.648 8.90763 33.5391 8.74621L33.5099 8.73153Z" fill="#FF7800"/>
</g>
<defs>
<clipPath id="clip0_3402_585">
<rect width="94" height="103" fill="white"/>
</clipPath>
</defs>
</svg>
