<svg width="320" height="147" viewBox="0 0 320 147" fill="none" xmlns="http://www.w3.org/2000/svg">
<rect width="320" height="147" rx="10" fill="white"/>
<path d="M135.001 24.1348C135.001 26.0684 136.126 27.9316 138.657 28.7227L137.461 30.4629C135.765 29.9004 134.579 28.8105 133.893 27.4043C133.199 29.0215 131.96 30.2871 130.131 30.9023L128.918 29.1445C131.59 28.248 132.733 26.1211 132.751 23.9238V22.4648H135.001V24.1348ZM141.856 21.6211V25.3652H144.018V27.2285H141.856V31.1133H139.606V21.6211H141.856ZM136.618 31.4297C139.922 31.4297 142.014 32.5723 142.014 34.5234C142.014 36.4922 139.922 37.6172 136.618 37.6172C133.243 37.6172 131.133 36.4922 131.133 34.5234C131.133 32.5723 133.243 31.4297 136.618 31.4297ZM136.618 33.1875C134.508 33.1875 133.366 33.6445 133.383 34.5234C133.366 35.4375 134.508 35.8594 136.618 35.8594C138.692 35.8594 139.799 35.4375 139.799 34.5234C139.799 33.6445 138.692 33.1875 136.618 33.1875ZM158.335 21.6211V30.8672H156.102V27.1406H153.571V25.3125H156.102V21.6211H158.335ZM158.335 31.5352V37.4414H147.577V31.5352H158.335ZM149.827 33.293V35.6484H156.138V33.293H149.827ZM154.081 22.4297V24.2402H150.899C150.934 26.0596 152.068 28.002 154.573 28.8281L153.466 30.6035C151.69 30.0146 150.469 28.8545 149.774 27.4043C149.062 29.0039 147.788 30.2783 145.907 30.8848L144.764 29.127C147.348 28.3008 148.553 26.2617 148.614 24.2402H145.397V22.4297H154.081ZM178.302 21.6211V31.1133H176.07V27.334H173.574V25.5234H176.07V21.6211H178.302ZM172.835 31.4648C176.246 31.4824 178.337 32.6074 178.355 34.5586C178.337 36.4922 176.246 37.6348 172.835 37.6348C169.425 37.6348 167.333 36.4922 167.333 34.5586C167.333 32.6074 169.425 31.4824 172.835 31.4648ZM172.835 33.1875C170.708 33.1875 169.566 33.627 169.566 34.5586C169.566 35.4727 170.708 35.9297 172.835 35.9297C174.962 35.9297 176.123 35.4727 176.123 34.5586C176.123 33.627 174.962 33.1875 172.835 33.1875ZM174.048 22.5879V24.3809H170.867C170.919 26.2441 172.044 28.125 174.54 28.9512L173.433 30.709C171.666 30.1377 170.454 28.9775 169.759 27.5273C169.047 29.1621 167.773 30.4805 165.874 31.1309L164.714 29.3555C167.342 28.4766 168.52 26.3848 168.581 24.3809H165.365V22.5879H174.048ZM195.15 33.9258V35.7539H180.508V33.9258H186.678V30.9727H182.054V22.6406H184.304V25.1191H191.283V22.6406H193.515V30.9727H188.91V33.9258H195.15ZM184.304 29.1797H191.283V26.9121H184.304V29.1797Z" fill="black"/>
<path d="M69.3259 60.6924V61.7207H58.9158V60.6924H63.4861V58.2676H59.8298V57.3154H61.531V53.7354H59.8044V52.7578H68.3738V53.7354H66.6345V57.3154H68.3357V58.2676H64.6794V60.6924H69.3259ZM62.7243 57.3154H65.4538V53.7354H62.7243V57.3154ZM79.7149 51.7168V59.9814H78.5088V51.7168H79.7149ZM80.0577 61.8604V62.8379H72.2754V59.1436H73.4942V61.8604H80.0577ZM73.545 52.4785C75.2588 52.4785 76.5664 53.6465 76.5664 55.2969C76.5664 56.9727 75.2588 58.1279 73.545 58.1279C71.8311 58.1279 70.5108 56.9727 70.5108 55.2969C70.5108 53.6465 71.8311 52.4785 73.545 52.4785ZM73.545 53.5322C72.4786 53.5322 71.6914 54.2559 71.6914 55.2969C71.6914 56.3633 72.4786 57.0742 73.545 57.0742C74.586 57.0742 75.3858 56.3633 75.3858 55.2969C75.3858 54.2559 74.586 53.5322 73.545 53.5322ZM90.8783 57.7598V58.7246H82.9564V52.6436H90.764V53.6211H84.1751V55.1572H90.5228V56.1094H84.1751V57.7598H90.8783ZM92.0589 60.6543V61.6445H81.6488V60.6543H92.0589ZM103.468 52.6816V53.583H96.7392V52.6816H99.4941V51.6279H100.7V52.6816H103.468ZM100.103 53.9639C101.754 53.9512 102.871 54.6113 102.871 55.665C102.871 56.5728 102.02 57.1821 100.7 57.3154V58.001C101.709 57.9502 102.725 57.874 103.671 57.7471L103.76 58.585C101.297 58.9912 98.58 59.0293 96.5361 59.0293L96.371 58.0898C97.3042 58.0898 98.3833 58.0835 99.4941 58.0518V57.3154C98.1738 57.1821 97.3359 56.5728 97.3486 55.665C97.3359 54.6113 98.4404 53.9512 100.103 53.9639ZM100.103 54.7891C99.1259 54.7764 98.4912 55.1064 98.4912 55.665C98.4912 56.1855 99.1259 56.5156 100.103 56.5156C101.068 56.5156 101.716 56.1855 101.716 55.665C101.716 55.1064 101.068 54.7764 100.103 54.7891ZM105.753 51.7295V59.3467H104.547V51.7295H105.753ZM105.753 59.8545V63.0791H104.547V60.7939H98.0087V59.8545H105.753ZM118.072 57.1885V58.166H107.687V57.1885H118.072ZM116.802 59.3975V63.1172H115.609V60.375H108.842V59.3975H116.802ZM116.904 55.0684V56.0332H108.982V52.123H116.789V53.1006H110.188V55.0684H116.904Z" fill="black"/>
<path d="M25.0283 76.5986C25.0156 78.6172 26.1835 80.6738 27.8847 81.499L27.1357 82.4639C25.8979 81.8228 24.9394 80.5469 24.4443 79.0234C23.9301 80.6484 22.9335 82.0068 21.6386 82.6797L20.8896 81.7021C22.6415 80.8643 23.8222 78.6807 23.8222 76.5986V74.6562H25.0283V76.5986ZM29.9413 73.7041V78.2363H31.7695V79.2646H29.9413V85.0791H28.7353V73.7041H29.9413ZM36.6614 76.0781C36.6614 77.5508 37.7532 78.9346 39.5051 79.4932L38.883 80.4326C37.5754 80.001 36.5852 79.106 36.0774 77.9697C35.5632 79.2075 34.5539 80.1851 33.1955 80.6611L32.5735 79.709C34.3381 79.1123 35.4299 77.6396 35.4426 76.0781V75.583H32.8909V74.6055H39.1623V75.583H36.6614V76.0781ZM41.8791 73.7168V82.0195H40.6731V73.7168H41.8791ZM42.2219 83.8604V84.8379H34.4397V81.2324H35.6584V83.8604H42.2219ZM51.0663 81.2197C51.0663 82.1973 51.5487 83.2319 52.577 83.8477C53.6244 83.1812 54.1385 82.0894 54.1385 81.2197V80.6738H55.3192V81.2197C55.3192 82.4004 56.0936 83.543 57.579 84.0254L56.9823 84.9141C55.8587 84.5269 55.097 83.7715 54.6971 82.832C54.3353 83.7524 53.6561 84.584 52.6151 85.0156C51.5233 84.603 50.8314 83.7969 50.4823 82.8701C50.0697 83.7651 49.3207 84.5205 48.2479 84.9141L47.6385 84.0254C49.0985 83.5049 49.8856 82.3242 49.8983 81.2197V80.6738H51.0663V81.2197ZM56.5506 73.7168V80.1914H55.3446V73.7168H56.5506ZM50.3807 74.3389C52.12 74.3389 53.4022 75.4434 53.4022 77.0303C53.4022 78.6045 52.12 79.6963 50.3807 79.6963C48.6415 79.6963 47.3465 78.6045 47.3465 77.0303C47.3465 75.4434 48.6415 74.3389 50.3807 74.3389ZM50.3807 75.3672C49.3016 75.3545 48.5272 76.0273 48.5272 77.0303C48.5272 78.0205 49.3016 78.6934 50.3807 78.6934C51.4471 78.6934 52.2215 78.0205 52.2215 77.0303C52.2215 76.0273 51.4471 75.3545 50.3807 75.3672ZM67.6886 77.0303V77.9951H59.8556V74.1104H61.049V77.0303H67.6886ZM68.882 79.4297V80.3945H58.4718V79.4297H68.882ZM67.7648 83.8223V84.8125H59.7668V81.4736H60.9728V83.8223H67.7648ZM82.6013 73.7041V85.1045H81.3953V73.7041H82.6013ZM79.1228 74.7324V78.8838H75.0349V81.3721C76.8757 81.3657 78.488 81.2832 80.3923 80.9658L80.5066 81.9561C78.488 82.2988 76.7742 82.375 74.7683 82.375H73.8035V77.9189H77.8914V75.71H73.7908V74.7324H79.1228ZM94.92 80.2803V81.2705H92.3682V85.0791H91.1622V81.2705H88.2803V85.0791H87.0489V81.2705H84.5098V80.2803H94.92ZM86.9981 74.1484V75.5957H92.4063V74.1484H93.6124V79.0234H85.8048V74.1484H86.9981ZM86.9981 78.0586H92.4063V76.5479H86.9981V78.0586ZM25.0283 93.5986C25.0156 95.6172 26.1835 97.6738 27.8847 98.499L27.1357 99.4639C25.8979 98.8228 24.9394 97.5469 24.4443 96.0234C23.9301 97.6484 22.9335 99.0068 21.6386 99.6797L20.8896 98.7021C22.6415 97.8643 23.8222 95.6807 23.8222 93.5986V91.6562H25.0283V93.5986ZM29.9413 90.7041V95.2363H31.7695V96.2646H29.9413V102.079H28.7353V90.7041H29.9413ZM36.6614 93.0781C36.6614 94.5508 37.7532 95.9346 39.5051 96.4932L38.883 97.4326C37.5754 97.001 36.5852 96.106 36.0774 94.9697C35.5632 96.2075 34.5539 97.1851 33.1955 97.6611L32.5735 96.709C34.3381 96.1123 35.4299 94.6396 35.4426 93.0781V92.583H32.8909V91.6055H39.1623V92.583H36.6614V93.0781ZM41.8791 90.7168V99.0195H40.6731V90.7168H41.8791ZM42.2219 100.86V101.838H34.4397V98.2324H35.6584V100.86H42.2219ZM49.5428 97.3691V98.6895H51.3202V97.3691H52.4373V101.939H48.4129V97.3691H49.5428ZM49.5428 101H51.3202V99.6035H49.5428V101ZM55.7381 98.2197C55.7381 99.4131 56.3983 100.619 57.8075 101.114L57.1854 102.028C56.1571 101.635 55.4906 100.892 55.1415 99.9844C54.7606 100.873 54.0877 101.622 53.1102 102.028L52.5008 101.114C53.8719 100.556 54.5448 99.3496 54.5448 98.2197V97.293H55.7381V98.2197ZM50.2665 91.1865C51.7645 91.1865 52.9198 92.0371 53.1737 93.3066H55.3954V90.7041H56.6014V96.7344H55.3954V94.2969H53.1864C52.9388 95.6045 51.7772 96.4551 50.2665 96.4551C48.5272 96.4551 47.2831 95.3887 47.2831 93.8145C47.2831 92.2656 48.5272 91.1865 50.2665 91.1865ZM50.2665 92.1895C49.1873 92.1895 48.4383 92.8496 48.4383 93.8145C48.4383 94.792 49.1873 95.4648 50.2665 95.4775C51.3202 95.4648 52.0692 94.792 52.0692 93.8145C52.0692 92.8496 51.3202 92.1895 50.2665 92.1895ZM67.6886 94.0303V94.9951H59.8556V91.1104H61.049V94.0303H67.6886ZM68.882 96.4297V97.3945H58.4718V96.4297H68.882ZM67.7648 100.822V101.812H59.7668V98.4736H60.9728V100.822H67.7648ZM82.6013 90.7041V102.104H81.3953V90.7041H82.6013ZM79.1228 91.7324V95.8838H75.0349V98.3721C76.8757 98.3657 78.488 98.2832 80.3923 97.9658L80.5066 98.9561C78.488 99.2988 76.7742 99.375 74.7683 99.375H73.8035V94.9189H77.8914V92.71H73.7908V91.7324H79.1228ZM94.92 97.2803V98.2705H92.3682V102.079H91.1622V98.2705H88.2803V102.079H87.0489V98.2705H84.5098V97.2803H94.92ZM86.9981 91.1484V92.5957H92.4063V91.1484H93.6124V96.0234H85.8048V91.1484H86.9981ZM86.9981 95.0586H92.4063V93.5479H86.9981V95.0586Z" fill="#999999"/>
<path d="M127.576 74.8086V84H126.167V76.2051H126.116L123.92 77.6396V76.3066L126.205 74.8086H127.576ZM133.242 84.127C131.109 84.127 129.865 82.4131 129.865 79.4043C129.865 76.4209 131.135 74.6816 133.242 74.6816C135.35 74.6816 136.619 76.4209 136.619 79.4043C136.619 82.4131 135.362 84.127 133.242 84.127ZM133.242 82.9209C134.486 82.9209 135.223 81.7021 135.223 79.4043C135.223 77.1191 134.474 75.8623 133.242 75.8623C132.011 75.8623 131.262 77.1191 131.262 79.4043C131.262 81.7021 131.998 82.9209 133.242 82.9209ZM141.397 84.127C139.264 84.127 138.02 82.4131 138.02 79.4043C138.02 76.4209 139.289 74.6816 141.397 74.6816C143.504 74.6816 144.774 76.4209 144.774 79.4043C144.774 82.4131 143.517 84.127 141.397 84.127ZM141.397 82.9209C142.641 82.9209 143.377 81.7021 143.377 79.4043C143.377 77.1191 142.628 75.8623 141.397 75.8623C140.165 75.8623 139.416 77.1191 139.416 79.4043C139.416 81.7021 140.153 82.9209 141.397 82.9209ZM149.67 86.5898V77.1064H150.99V78.2236H151.104C151.346 77.792 151.815 77.0176 153.085 77.0176C154.748 77.0176 155.979 78.3252 155.979 80.5723C155.979 82.7939 154.773 84.1396 153.098 84.1396C151.841 84.1396 151.346 83.3779 151.104 82.9209H151.028V86.5898H149.67ZM151.003 80.5469C151.003 81.9941 151.638 82.9844 152.793 82.9844C153.986 82.9844 154.608 81.9307 154.608 80.5469C154.608 79.1885 153.999 78.1729 152.793 78.1729C151.625 78.1729 151.003 79.1123 151.003 80.5469ZM133.306 101.127C131.566 101.127 130.259 100.061 130.195 98.6006H131.554C131.63 99.3877 132.379 99.959 133.306 99.959C134.423 99.959 135.223 99.1465 135.223 98.0547C135.223 96.9375 134.398 96.125 133.242 96.1123C132.506 96.1123 131.947 96.3535 131.63 96.9248H130.31L130.906 91.8086H136.111V93.002H132.062L131.757 95.5791H131.846C132.227 95.2109 132.874 94.957 133.572 94.957C135.299 94.957 136.581 96.2393 136.581 98.0166C136.581 99.832 135.223 101.127 133.306 101.127ZM141.397 101.127C139.264 101.127 138.02 99.4131 138.02 96.4043C138.02 93.4209 139.289 91.6816 141.397 91.6816C143.504 91.6816 144.774 93.4209 144.774 96.4043C144.774 99.4131 143.517 101.127 141.397 101.127ZM141.397 99.9209C142.641 99.9209 143.377 98.7021 143.377 96.4043C143.377 94.1191 142.628 92.8623 141.397 92.8623C140.165 92.8623 139.416 94.1191 139.416 96.4043C139.416 98.7021 140.153 99.9209 141.397 99.9209ZM149.67 103.59V94.1064H150.99V95.2236H151.104C151.346 94.792 151.815 94.0176 153.085 94.0176C154.748 94.0176 155.979 95.3252 155.979 97.5723C155.979 99.7939 154.773 101.14 153.098 101.14C151.841 101.14 151.346 100.378 151.104 99.9209H151.028V103.59H149.67ZM151.003 97.5469C151.003 98.9941 151.638 99.9844 152.793 99.9844C153.986 99.9844 154.608 98.9307 154.608 97.5469C154.608 96.1885 153.999 95.1729 152.793 95.1729C151.625 95.1729 151.003 96.1123 151.003 97.5469Z" fill="#999999"/>
<path d="M178.5 49V125" stroke="#999999"/>
<path d="M229.691 51.7041V63.0791H228.523V57.2139H227.127V62.5332H225.997V51.9707H227.127V56.2236H228.523V51.7041H229.691ZM224.981 53.0625C224.981 56.1094 224.118 58.8643 220.665 60.7812L219.954 59.918C221.636 58.9912 222.645 57.874 223.217 56.5918L220.144 56.9219L219.992 55.8682L223.547 55.6523C223.68 55.1382 223.762 54.5986 223.801 54.04H220.563V53.0625H224.981ZM240.715 51.7168V58.6611H239.509V51.7168H240.715ZM240.715 59.2451V63.0791H239.509V60.2354H233.009V59.2451H240.715ZM237.084 52.377V55.627H233.06V57.0869C235.046 57.0806 236.513 57.0107 238.239 56.7568L238.392 57.7344C236.538 58.0264 234.977 58.0771 232.831 58.0771H231.879V54.6875H235.891V53.3545H231.854V52.377H237.084ZM252.132 51.7041V63.1045H250.939V56.8965H248.679V55.9062H250.939V51.7041H252.132ZM248.489 52.7197V53.6973H244.388V55.9062H248.006V56.8711H244.388V59.4102C246.292 59.4038 247.613 59.3594 249.123 59.0928L249.25 60.0703C247.6 60.3369 246.165 60.4004 244.058 60.4131H243.169V52.7197H248.489ZM266.27 51.7168V55.0938H267.895V56.084H266.27V59.3721H265.064V51.7168H266.27ZM257.244 58.1025C258.126 58.1025 259.148 58.1025 260.215 58.0645V57.3027C258.92 57.1694 258.095 56.5601 258.107 55.6396C258.095 54.5986 259.174 53.9512 260.811 53.9639C262.436 53.9512 263.516 54.5986 263.516 55.6396C263.516 56.5537 262.703 57.1631 261.421 57.3027V58.0264C262.436 57.9756 263.465 57.8931 264.417 57.7598L264.519 58.623C262.068 59.0547 259.377 59.0674 257.371 59.0674L257.244 58.1025ZM266.27 59.9053V63.0791H265.064V60.8447H258.666V59.9053H266.27ZM264.1 52.6816V53.583H257.536V52.6816H260.215V51.6152H261.421V52.6816H264.1ZM260.811 54.7891C259.834 54.7764 259.25 55.0938 259.25 55.6396C259.25 56.1729 259.834 56.5156 260.811 56.5156C261.776 56.5156 262.36 56.1729 262.36 55.6396C262.36 55.0938 261.776 54.7764 260.811 54.7891ZM279.084 56.8457V57.7471H276.355V58.6611H277.802V61.1621H271.124V62.1143H278.157V62.9648H269.918V60.3623H276.609V59.5244H269.906V58.6611H271.416V57.7471H268.674V56.8457H279.084ZM277.777 51.9961V54.4463H271.2V55.2842H277.967V56.1348H270.007V53.6465H276.571V52.834H269.982V51.9961H277.777ZM272.61 58.6611H275.161V57.7471H272.61V58.6611Z" fill="black"/>
<path d="M218.99 80.293V81.2451H208.618V80.293H218.99ZM217.822 83.873V84.8379H209.926V81.9941H211.144V83.873H217.822ZM218.406 74.7324V75.6592H209.151V74.7324H213.201V73.5898H214.407V74.7324H218.406ZM213.798 76.1162C216.159 76.1162 217.53 76.7129 217.53 77.8809C217.53 79.0107 216.159 79.6201 213.798 79.6201C211.424 79.6201 210.053 79.0107 210.065 77.8809C210.053 76.7129 211.424 76.1162 213.798 76.1162ZM213.798 76.9795C212.16 76.9795 211.284 77.3096 211.284 77.8809C211.284 78.4521 212.16 78.7441 213.798 78.7441C215.435 78.7441 216.311 78.4521 216.311 77.8809C216.311 77.3096 215.435 76.9795 213.798 76.9795ZM228.922 73.7041V76.6494H230.572V77.6777H228.922V80.5596H227.716V73.7041H228.922ZM228.922 81.1562V84.9395H221.66V81.1562H228.922ZM222.841 82.1084V83.9619H227.729V82.1084H222.841ZM226.777 74.8594V75.8242H219.997V74.8594H222.79V73.6152H223.996V74.8594H226.777ZM223.387 76.3193C225.025 76.3193 226.142 77.1318 226.142 78.3506C226.142 79.582 225.025 80.3818 223.387 80.3945C221.724 80.3818 220.619 79.582 220.619 78.3506C220.619 77.1318 221.724 76.3193 223.387 76.3193ZM223.387 77.2461C222.422 77.2334 221.775 77.665 221.787 78.3506C221.775 79.0615 222.422 79.4805 223.387 79.4805C224.352 79.4805 224.999 79.0615 225.012 78.3506C224.999 77.665 224.352 77.2334 223.387 77.2461ZM219.028 99.667V100.67H208.618V99.667H213.201V97.3311H209.811V91.4785H211.017V93.4336H216.603V91.4785H217.797V97.3311H214.394V99.667H219.028ZM211.017 96.3535H216.603V94.4111H211.017V96.3535ZM230.357 96.6836V97.6357H219.959V96.6836H224.555V95.6934H221.318V91.0088H229.087V91.9609H222.536V92.8877H228.795V93.7891H222.536V94.7539H229.163V95.6934H225.761V96.6836H230.357ZM225.164 98.3848C227.665 98.3721 229.087 99.0322 229.087 100.226C229.087 101.432 227.665 102.066 225.164 102.054C222.638 102.066 221.216 101.432 221.216 100.226C221.216 99.0322 222.638 98.3721 225.164 98.3848ZM225.164 99.2861C223.374 99.2861 222.409 99.6162 222.422 100.226C222.409 100.835 223.374 101.152 225.164 101.14C226.929 101.152 227.881 100.835 227.881 100.226C227.881 99.6162 226.929 99.2861 225.164 99.2861ZM218.025 107.704V119.079H216.819V107.704H218.025ZM208.681 115.905C210.84 115.905 213.658 115.905 216.121 115.588L216.21 116.477C213.645 116.908 210.941 116.934 208.847 116.921L208.681 115.905ZM215.867 109.189V110.154H208.923V109.189H211.792V107.831H213.011V109.189H215.867ZM212.401 110.726C214.039 110.726 215.156 111.563 215.156 112.884C215.156 114.153 214.039 115.029 212.401 115.017C210.776 115.029 209.646 114.153 209.659 112.884C209.646 111.563 210.776 110.726 212.401 110.726ZM212.401 111.652C211.449 111.652 210.776 112.147 210.789 112.884C210.776 113.607 211.449 114.09 212.401 114.09C213.353 114.09 214.001 113.607 214.014 112.884C214.001 112.147 213.353 111.652 212.401 111.652ZM229.557 107.704V119.079H228.338V107.704H229.557ZM219.908 113.062C221.394 113.062 223.089 113.049 224.783 112.96C225.063 111.443 225.113 110.313 225.139 109.532H220.899V108.555H226.332V109.075C226.319 109.824 226.319 111.1 226.015 112.884C226.542 112.852 227.069 112.808 227.576 112.757L227.652 113.658C226.529 113.811 225.367 113.906 224.225 113.963V118.419H223.019V114.014C221.984 114.052 220.987 114.064 220.073 114.064L219.908 113.062Z" fill="#999999"/>
<path d="M270.402 84L274.503 76.0781V76.002H269.768V74.8086H275.95V76.0527L271.862 84H270.402ZM280.487 84.127C278.747 84.127 277.44 83.0605 277.376 81.6006H278.735C278.811 82.3877 279.56 82.959 280.487 82.959C281.604 82.959 282.404 82.1465 282.404 81.0547C282.404 79.9375 281.579 79.125 280.423 79.1123C279.687 79.1123 279.128 79.3535 278.811 79.9248H277.491L278.087 74.8086H283.292V76.002H279.243L278.938 78.5791H279.027C279.408 78.2109 280.055 77.957 280.753 77.957C282.48 77.957 283.762 79.2393 283.762 81.0166C283.762 82.832 282.404 84.127 280.487 84.127ZM290.791 79.1758C289.534 79.1885 288.849 78.249 288.861 76.8906C288.849 75.5449 289.56 74.6182 290.791 74.6182C292.048 74.6182 292.721 75.5449 292.721 76.8906C292.721 78.2617 292.022 79.1885 290.791 79.1758ZM290.791 78.2871C291.388 78.2871 291.667 77.7285 291.667 76.8906C291.667 76.0654 291.4 75.5068 290.791 75.5068C290.207 75.5195 289.902 76.0654 289.902 76.8906C289.902 77.7285 290.194 78.2871 290.791 78.2871ZM296.593 84.1904C295.336 84.1904 294.65 83.2637 294.663 81.9053C294.65 80.5469 295.374 79.6201 296.593 79.6201C297.85 79.6201 298.522 80.5469 298.522 81.9053C298.522 83.2637 297.824 84.1904 296.593 84.1904ZM296.593 83.2891C297.189 83.2891 297.469 82.7305 297.469 81.9053C297.469 81.0674 297.202 80.5088 296.593 80.5088C296.009 80.5215 295.704 81.0801 295.704 81.9053C295.704 82.7305 296.009 83.2891 296.593 83.2891ZM289.902 84L296.212 74.8086H297.367L291.058 84H289.902ZM269.361 101V99.9844L272.548 96.7725C273.551 95.7188 274.059 95.1348 274.059 94.335C274.059 93.4336 273.322 92.8496 272.358 92.8496C271.342 92.8496 270.682 93.4971 270.682 94.4746H269.361C269.349 92.7988 270.631 91.6816 272.383 91.6816C274.16 91.6816 275.379 92.7988 275.392 94.2969C275.379 95.3252 274.897 96.1377 273.17 97.8389L271.304 99.7305V99.8066H275.544V101H269.361ZM280.423 101.127C278.29 101.127 277.046 99.4131 277.046 96.4043C277.046 93.4209 278.316 91.6816 280.423 91.6816C282.531 91.6816 283.8 93.4209 283.8 96.4043C283.8 99.4131 282.543 101.127 280.423 101.127ZM280.423 99.9209C281.667 99.9209 282.404 98.7021 282.404 96.4043C282.404 94.1191 281.655 92.8623 280.423 92.8623C279.192 92.8623 278.443 94.1191 278.443 96.4043C278.443 98.7021 279.179 99.9209 280.423 99.9209ZM290.791 96.1758C289.534 96.1885 288.849 95.249 288.861 93.8906C288.849 92.5449 289.56 91.6182 290.791 91.6182C292.048 91.6182 292.721 92.5449 292.721 93.8906C292.721 95.2617 292.022 96.1885 290.791 96.1758ZM290.791 95.2871C291.388 95.2871 291.667 94.7285 291.667 93.8906C291.667 93.0654 291.4 92.5068 290.791 92.5068C290.207 92.5195 289.902 93.0654 289.902 93.8906C289.902 94.7285 290.194 95.2871 290.791 95.2871ZM296.593 101.19C295.336 101.19 294.65 100.264 294.663 98.9053C294.65 97.5469 295.374 96.6201 296.593 96.6201C297.85 96.6201 298.522 97.5469 298.522 98.9053C298.522 100.264 297.824 101.19 296.593 101.19ZM296.593 100.289C297.189 100.289 297.469 99.7305 297.469 98.9053C297.469 98.0674 297.202 97.5088 296.593 97.5088C296.009 97.5215 295.704 98.0801 295.704 98.9053C295.704 99.7305 296.009 100.289 296.593 100.289ZM289.902 101L296.212 91.8086H297.367L291.058 101H289.902ZM280.487 118.127C278.747 118.127 277.44 117.061 277.376 115.601H278.735C278.811 116.388 279.56 116.959 280.487 116.959C281.604 116.959 282.404 116.146 282.404 115.055C282.404 113.938 281.579 113.125 280.423 113.112C279.687 113.112 279.128 113.354 278.811 113.925H277.491L278.087 108.809H283.292V110.002H279.243L278.938 112.579H279.027C279.408 112.211 280.055 111.957 280.753 111.957C282.48 111.957 283.762 113.239 283.762 115.017C283.762 116.832 282.404 118.127 280.487 118.127ZM290.791 113.176C289.534 113.188 288.849 112.249 288.861 110.891C288.849 109.545 289.56 108.618 290.791 108.618C292.048 108.618 292.721 109.545 292.721 110.891C292.721 112.262 292.022 113.188 290.791 113.176ZM290.791 112.287C291.388 112.287 291.667 111.729 291.667 110.891C291.667 110.065 291.4 109.507 290.791 109.507C290.207 109.52 289.902 110.065 289.902 110.891C289.902 111.729 290.194 112.287 290.791 112.287ZM296.593 118.19C295.336 118.19 294.65 117.264 294.663 115.905C294.65 114.547 295.374 113.62 296.593 113.62C297.85 113.62 298.522 114.547 298.522 115.905C298.522 117.264 297.824 118.19 296.593 118.19ZM296.593 117.289C297.189 117.289 297.469 116.73 297.469 115.905C297.469 115.067 297.202 114.509 296.593 114.509C296.009 114.521 295.704 115.08 295.704 115.905C295.704 116.73 296.009 117.289 296.593 117.289ZM289.902 118L296.212 108.809H297.367L291.058 118H289.902Z" fill="#999999"/>
</svg>
