<svg width="12" height="12" viewBox="0 0 12 12" fill="none" xmlns="http://www.w3.org/2000/svg">
<path d="M5.55332 0.788117C5.73796 0.420999 6.26204 0.420999 6.44668 0.788117L7.73671 3.35301C7.8102 3.49913 7.9505 3.60006 8.1124 3.62329L10.9824 4.03498C11.3952 4.09421 11.5584 4.60314 11.2568 4.89135L9.193 6.86419C9.07239 6.97948 9.01724 7.14733 9.04596 7.31169L9.53456 10.1075C9.60573 10.5148 9.18006 10.8275 8.81271 10.6379L6.22932 9.30457C6.08545 9.23032 5.91455 9.23032 5.77068 9.30457L3.1873 10.6379C2.81994 10.8275 2.39428 10.5148 2.46544 10.1075L2.95404 7.31169C2.98276 7.14733 2.92761 6.97948 2.807 6.86419L0.743153 4.89135C0.441648 4.60314 0.604778 4.09421 1.01765 4.03498L3.88761 3.62329C4.0495 3.60006 4.1898 3.49913 4.26329 3.35301L5.55332 0.788117Z" fill="#B9B9B9" stroke="#B9B9B9" stroke-linecap="round" stroke-linejoin="round"/>
</svg>
