<svg width="27" height="22" viewBox="0 0 27 22" fill="none" xmlns="http://www.w3.org/2000/svg">
<path d="M26 18.7778C26 19.3671 25.7606 19.9324 25.3343 20.3491C24.9081 20.7659 24.33 21 23.7273 21H3.27273C2.66996 21 2.09189 20.7659 1.66567 20.3491C1.23945 19.9324 1 19.3671 1 18.7778V6.55556C1 5.96619 1.23945 5.40095 1.66567 4.98421C2.09189 4.56746 2.66996 4.33333 3.27273 4.33333H7.81818L10.0909 1H16.9091L19.1818 4.33333H23.7273C24.33 4.33333 24.9081 4.56746 25.3343 4.98421C25.7606 5.40095 26 5.96619 26 6.55556V18.7778Z" stroke="#1E1E1E" stroke-width="2" stroke-linecap="round" stroke-linejoin="round"/>
<path d="M13.5 16.5556C16.0104 16.5556 18.0455 14.5657 18.0455 12.1111C18.0455 9.65651 16.0104 7.66667 13.5 7.66667C10.9896 7.66667 8.95455 9.65651 8.95455 12.1111C8.95455 14.5657 10.9896 16.5556 13.5 16.5556Z" stroke="#1E1E1E" stroke-width="2" stroke-linecap="round" stroke-linejoin="round"/>
</svg>
