<svg width="29" height="40" viewBox="0 0 29 40" fill="none" xmlns="http://www.w3.org/2000/svg">
<g clip-path="url(#clip0_1744_129)">
<path d="M28.3497 37.116L21.085 17.6212H11.9746L20.3098 40L23.381 36.2013L28.3497 37.116Z" fill="#FF7800"/>
<path d="M0 37.116L7.26467 17.6212H16.375L8.03987 40L4.96862 36.2013L0 37.116Z" fill="#FF7800"/>
<path d="M14.4186 28.8106C22.3818 28.8106 28.8372 22.3611 28.8372 14.4053C28.8372 6.44948 22.3818 0 14.4186 0C6.45543 0 0 6.44948 0 14.4053C0 22.3611 6.45543 28.8106 14.4186 28.8106Z" fill="#DBDBD7"/>
</g>
<path d="M9.9278 20.4419L9.91022 18.5259L14.4805 14.3247C15.6758 13.1821 16.3087 12.479 16.3087 11.4771C16.3087 10.3521 15.4473 9.64893 14.2872 9.64893C13.0919 9.64893 12.3184 10.4048 12.3184 11.6177H9.80476C9.78718 9.12158 11.6329 7.53955 14.3223 7.53955C17.0469 7.53955 18.8575 9.08643 18.8575 11.3013C18.8575 12.7427 18.1544 13.938 15.5352 16.311L13.6016 18.1919V18.2622H19.0333V20.4419H9.9278Z" fill="black"/>
<defs>
<clipPath id="clip0_1744_129">
<rect width="28.8372" height="40" fill="white"/>
</clipPath>
</defs>
</svg>
