<svg width="20" height="20" viewBox="0 0 20 20" fill="none" xmlns="http://www.w3.org/2000/svg">
<path d="M9.79004 12.2446C11.1456 12.2446 12.2446 11.1456 12.2446 9.79004C12.2446 8.43443 11.1456 7.33549 9.79004 7.33549C8.43443 7.33549 7.33549 8.43443 7.33549 9.79004C7.33549 11.1456 8.43443 12.2446 9.79004 12.2446Z" stroke="#1E1E1E" stroke-width="1.58" stroke-linecap="round" stroke-linejoin="round"/>
<path d="M15.8446 12.2446C15.7357 12.4914 15.7032 12.7651 15.7513 13.0305C15.7994 13.2959 15.926 13.5408 16.1146 13.7337L16.1637 13.7828C16.3158 13.9347 16.4365 14.1152 16.5189 14.3139C16.6012 14.5125 16.6436 14.7255 16.6436 14.9405C16.6436 15.1555 16.6012 15.3685 16.5189 15.5671C16.4365 15.7658 16.3158 15.9462 16.1637 16.0982C16.0117 16.2504 15.8312 16.3711 15.6326 16.4534C15.4339 16.5358 15.221 16.5781 15.0059 16.5781C14.7909 16.5781 14.578 16.5358 14.3793 16.4534C14.1807 16.3711 14.0002 16.2504 13.8482 16.0982L13.7991 16.0491C13.6063 15.8605 13.3614 15.734 13.096 15.6859C12.8306 15.6377 12.5568 15.6702 12.31 15.7791C12.068 15.8828 11.8617 16.0551 11.7163 16.2746C11.5709 16.4941 11.4929 16.7513 11.4919 17.0146V17.1537C11.4919 17.5877 11.3195 18.0039 11.0126 18.3108C10.7057 18.6176 10.2895 18.79 9.85549 18.79C9.4215 18.79 9.00529 18.6176 8.69841 18.3108C8.39153 18.0039 8.21913 17.5877 8.21913 17.1537V17.08C8.2128 16.8092 8.12514 16.5466 7.96755 16.3262C7.80996 16.1059 7.58973 15.9381 7.33549 15.8446C7.08872 15.7357 6.81497 15.7032 6.54956 15.7513C6.28414 15.7994 6.03923 15.926 5.8464 16.1146L5.79731 16.1637C5.64534 16.3158 5.46487 16.4365 5.26621 16.5189C5.06756 16.6012 4.85463 16.6436 4.63958 16.6436C4.42454 16.6436 4.21161 16.6012 4.01295 16.5189C3.8143 16.4365 3.63383 16.3158 3.48186 16.1637C3.32971 16.0117 3.20902 15.8312 3.12667 15.6326C3.04432 15.4339 3.00193 15.221 3.00193 15.0059C3.00193 14.7909 3.04432 14.578 3.12667 14.3793C3.20902 14.1807 3.32971 14.0002 3.48186 13.8482L3.53095 13.7991C3.71957 13.6063 3.8461 13.3614 3.89422 13.096C3.94235 12.8306 3.90986 12.5568 3.80095 12.31C3.69723 12.068 3.52502 11.8617 3.30551 11.7163C3.086 11.5709 2.82877 11.4929 2.56549 11.4919H2.4264C1.99241 11.4919 1.5762 11.3195 1.26932 11.0126C0.962441 10.7057 0.790039 10.2895 0.790039 9.85549C0.790039 9.4215 0.962441 9.00529 1.26932 8.69841C1.5762 8.39153 1.99241 8.21913 2.4264 8.21913H2.50004C2.77085 8.2128 3.0335 8.12514 3.25383 7.96755C3.47416 7.80996 3.64199 7.58973 3.73549 7.33549C3.84441 7.08872 3.87689 6.81497 3.82877 6.54956C3.78065 6.28414 3.65411 6.03923 3.46549 5.8464L3.4164 5.79731C3.26426 5.64534 3.14356 5.46487 3.06121 5.26621C2.97887 5.06756 2.93648 4.85463 2.93648 4.63958C2.93648 4.42454 2.97887 4.21161 3.06121 4.01295C3.14356 3.8143 3.26426 3.63383 3.4164 3.48186C3.56838 3.32971 3.74885 3.20902 3.9475 3.12667C4.14615 3.04432 4.35909 3.00193 4.57413 3.00193C4.78917 3.00193 5.00211 3.04432 5.20076 3.12667C5.39941 3.20902 5.57988 3.32971 5.73186 3.48186L5.78095 3.53095C5.97378 3.71957 6.21869 3.8461 6.4841 3.89422C6.74952 3.94235 7.02326 3.90986 7.27004 3.80095H7.33549C7.57749 3.69723 7.78387 3.52502 7.92924 3.30551C8.07461 3.086 8.15263 2.82877 8.15368 2.56549V2.4264C8.15368 1.99241 8.32608 1.5762 8.63296 1.26932C8.93983 0.962441 9.35605 0.790039 9.79004 0.790039C10.224 0.790039 10.6402 0.962441 10.9471 1.26932C11.254 1.5762 11.4264 1.99241 11.4264 2.4264V2.50004C11.4275 2.76332 11.5055 3.02055 11.6508 3.24006C11.7962 3.45957 12.0026 3.63178 12.2446 3.73549C12.4914 3.84441 12.7651 3.87689 13.0305 3.82877C13.2959 3.78065 13.5408 3.65411 13.7337 3.46549L13.7828 3.4164C13.9347 3.26426 14.1152 3.14356 14.3139 3.06121C14.5125 2.97887 14.7255 2.93648 14.9405 2.93648C15.1555 2.93648 15.3685 2.97887 15.5671 3.06121C15.7658 3.14356 15.9462 3.26426 16.0982 3.4164C16.2504 3.56838 16.3711 3.74885 16.4534 3.9475C16.5358 4.14615 16.5781 4.35909 16.5781 4.57413C16.5781 4.78917 16.5358 5.00211 16.4534 5.20076C16.3711 5.39941 16.2504 5.57988 16.0982 5.73186L16.0491 5.78095C15.8605 5.97378 15.734 6.21869 15.6859 6.4841C15.6377 6.74952 15.6702 7.02326 15.7791 7.27004V7.33549C15.8828 7.57749 16.0551 7.78387 16.2746 7.92924C16.4941 8.07461 16.7513 8.15263 17.0146 8.15368H17.1537C17.5877 8.15368 18.0039 8.32608 18.3108 8.63296C18.6176 8.93983 18.79 9.35605 18.79 9.79004C18.79 10.224 18.6176 10.6402 18.3108 10.9471C18.0039 11.254 17.5877 11.4264 17.1537 11.4264H17.08C16.8168 11.4275 16.5595 11.5055 16.34 11.6508C16.1205 11.7962 15.9483 12.0026 15.8446 12.2446Z" stroke="#1E1E1E" stroke-width="1.58" stroke-linecap="round" stroke-linejoin="round"/>
</svg>
