<svg width="24" height="24" viewBox="0 0 24 24" fill="none" xmlns="http://www.w3.org/2000/svg">
<path d="M5.83239 18.4886H0.587432C0.263001 18.4886 0 18.7505 0 19.0736V22.6251C0 22.9481 0.263001 23.21 0.587432 23.21H5.83239C6.15682 23.21 6.41982 22.9481 6.41982 22.6251V19.0736C6.41982 18.7505 6.15682 18.4886 5.83239 18.4886Z" fill="#FF7800"/>
<path d="M23.2035 14.6655H17.9585C17.6341 14.6655 17.3711 14.9274 17.3711 15.2505V22.6041C17.3711 22.9272 17.6341 23.1891 17.9585 23.1891H23.2035C23.5279 23.1891 23.7909 22.9272 23.7909 22.6041V15.2505C23.7909 14.9274 23.5279 14.6655 23.2035 14.6655Z" fill="#FF7800"/>
<path d="M14.5179 10.8215H9.27298C8.94855 10.8215 8.68555 11.0834 8.68555 11.4065V22.625C8.68555 22.9481 8.94855 23.2099 9.27298 23.2099H14.5179C14.8424 23.2099 15.1054 22.9481 15.1054 22.625V11.4065C15.1054 11.0834 14.8424 10.8215 14.5179 10.8215Z" fill="#FF7800"/>
<path d="M12.273 0.250693L13.301 2.48604L15.7556 2.75762C16.1123 2.79941 16.2592 3.23812 15.9864 3.48881L14.1612 5.13921L14.6647 7.54168C14.7486 7.89683 14.35 8.16842 14.0353 8.00129L11.8954 6.7896L9.75542 8.00129C9.44073 8.18931 9.06309 7.89683 9.12603 7.54168L9.62954 5.13921L7.8043 3.48881C7.53156 3.23812 7.67842 2.79941 8.03508 2.75762L10.4897 2.48604L11.5177 0.250693C11.6646 -0.0835644 12.1471 -0.0835644 12.294 0.250693H12.273Z" fill="#FF7800"/>
</svg>
