<svg width="51" height="44" viewBox="0 0 51 44" fill="none" xmlns="http://www.w3.org/2000/svg">
<path d="M46.7082 8.97412H3.91204C3.66419 8.97412 3.46326 9.17545 3.46326 9.42381V42.3951C3.46326 42.6435 3.66419 42.8448 3.91204 42.8448H46.7082C46.9561 42.8448 47.157 42.6435 47.157 42.3951V9.42381C47.157 9.17545 46.9561 8.97412 46.7082 8.97412Z" fill="#FFF4DF"/>
<path d="M46.6903 9.4238V42.3951H3.9121V9.4238H46.7083M46.6903 8.52441H3.9121C3.40946 8.52441 3.01453 8.92014 3.01453 9.4238V42.3951C3.01453 42.8988 3.40946 43.2945 3.9121 43.2945H46.7083C47.2109 43.2945 47.6059 42.8988 47.6059 42.3951V9.4238C47.6059 8.92014 47.2109 8.52441 46.7083 8.52441H46.6903Z" fill="#F15A29"/>
<path d="M24.4306 17.7881H9.44112C8.64797 17.7881 8.005 18.4324 8.005 19.2271V29.57C8.005 30.3647 8.64797 31.009 9.44112 31.009H24.4306C25.2237 31.009 25.8667 30.3647 25.8667 29.57V19.2271C25.8667 18.4324 25.2237 17.7881 24.4306 17.7881Z" fill="white" stroke="#FF7800" stroke-width="0.5" stroke-miterlimit="10"/>
<path d="M36.2606 17.7881C39.7791 17.7881 42.6513 20.6481 42.6513 24.1917V42.4132H29.8878V24.1917C29.8878 20.6661 32.7421 17.7881 36.2785 17.7881H36.2606Z" fill="#FF7800"/>
<path d="M47.0494 0.25L50.3524 9.42369V14.2084H0.25V9.42369L3.55306 0.25H47.0494Z" fill="#FF7800" stroke="#F15A29" stroke-width="0.5" stroke-linecap="round" stroke-linejoin="round"/>
</svg>
