<svg width="51" height="64" viewBox="0 0 51 64" fill="none" xmlns="http://www.w3.org/2000/svg">
<g clip-path="url(#clip0_2045_1261)">
<path d="M46.907 9.17383H4.11077C3.86292 9.17383 3.66199 9.37516 3.66199 9.62352V42.5948C3.66199 42.8432 3.86292 43.0445 4.11077 43.0445H46.907C47.1548 43.0445 47.3558 42.8432 47.3558 42.5948V9.62352C47.3558 9.37516 47.1548 9.17383 46.907 9.17383Z" fill="#FFF4DF"/>
<path d="M46.8891 9.6235V42.5948H4.11083V9.6235H46.907M46.8891 8.72412H4.11083C3.60819 8.72412 3.21326 9.11985 3.21326 9.6235V42.5948C3.21326 43.0985 3.60819 43.4942 4.11083 43.4942H46.907C47.4097 43.4942 47.8046 43.0985 47.8046 42.5948V9.6235C47.8046 9.11985 47.4097 8.72412 46.907 8.72412H46.8891Z" fill="#F15A29"/>
<path d="M24.6293 17.9878H9.63985C8.8467 17.9878 8.20374 18.6321 8.20374 19.4268V29.7697C8.20374 30.5644 8.8467 31.2087 9.63985 31.2087H24.6293C25.4224 31.2087 26.0654 30.5644 26.0654 29.7697V19.4268C26.0654 18.6321 25.4224 17.9878 24.6293 17.9878Z" fill="white" stroke="#FF7800" stroke-width="0.5" stroke-miterlimit="10"/>
<path d="M36.4593 17.9878C39.9778 17.9878 42.85 20.8478 42.85 24.3914V42.6129H30.0865V24.3914C30.0865 20.8658 32.9408 17.9878 36.4773 17.9878H36.4593Z" fill="#FF7800"/>
<path d="M47.2481 0.449707L50.5512 9.6234V14.4081H0.44873V9.6234L3.75179 0.449707H47.2481Z" fill="#FF7800" stroke="#F15A29" stroke-width="0.5" stroke-linecap="round" stroke-linejoin="round"/>
<path d="M21.5956 57.7765L20.7698 58.9997C19.585 58.6039 18.7593 57.8485 18.2746 56.8592C17.7899 57.9924 16.9282 58.8738 15.6537 59.3055L14.8099 58.0823C16.6769 57.4527 17.4667 55.9598 17.4847 54.4308V53.4055H19.0644V54.5747C19.0644 55.9238 19.8543 57.2369 21.6135 57.7765H21.5956ZM23.9472 61.8237C23.9472 63.2088 22.4931 63.9823 20.1774 63.9823C17.8617 63.9823 16.3538 63.1908 16.3538 61.8237C16.3538 60.4567 17.8258 59.6652 20.1774 59.6652C22.529 59.6652 23.9472 60.4567 23.9472 61.8237ZM17.9155 61.8237C17.9155 62.4713 18.7054 62.7591 20.1774 62.7591C21.6494 62.7591 22.4034 62.4713 22.4034 61.8237C22.4034 61.1762 21.6315 60.8884 20.1774 60.8884C18.7233 60.8884 17.9155 61.2122 17.9155 61.8237ZM23.8216 55.4201H25.3295V56.7152H23.8216V59.4314H22.2418V52.7939H23.8216V55.4201Z" fill="black"/>
<path d="M32.2766 54.6287H30.0506C30.0686 55.9058 30.8764 57.2549 32.6177 57.8305L31.8458 59.0716C30.6071 58.6579 29.7455 57.8485 29.2608 56.8412C28.7581 57.9564 27.8785 58.8558 26.5681 59.2695L25.7782 58.0463C27.5733 57.4707 28.4171 56.0497 28.4709 54.6287H26.227V53.3695H32.2946V54.6287H32.2766ZM35.2386 63.8743H27.7349V59.7372H35.2386V63.8743ZM29.2967 62.6152H33.6948V60.9603H29.2967V62.6152ZM35.2386 59.2695H33.6768V56.6613H31.9176V55.3842H33.6768V52.7939H35.2386V59.2695Z" fill="black"/>
</g>
<defs>
<clipPath id="clip0_2045_1261">
<rect width="51" height="64" fill="white"/>
</clipPath>
</defs>
</svg>
