<svg width="31" height="29" viewBox="0 0 31 29" fill="none" xmlns="http://www.w3.org/2000/svg">
<g filter="url(#filter0_d_289_307)">
<path d="M25.0898 3.03337C24.4845 2.38873 23.7659 1.87736 22.975 1.52847C22.1841 1.17958 21.3364 1 20.4803 1C19.6242 1 18.7764 1.17958 17.9855 1.52847C17.1946 1.87736 16.476 2.38873 15.8708 3.03337L14.9792 3.9826C14.7817 4.19284 14.4478 4.19284 14.2503 3.9826L13.3587 3.03337C12.1362 1.73186 10.4781 1.00067 8.74924 1.00067C7.02036 1.00067 5.36228 1.73186 4.13977 3.03337C2.91727 4.33488 2.23047 6.10011 2.23047 7.94072C2.23047 9.78133 2.91727 11.5466 4.13977 12.8481L14.2503 23.612C14.4478 23.8222 14.7817 23.8222 14.9792 23.612L25.0898 12.8481C25.6953 12.2037 26.1756 11.4387 26.5033 10.5967C26.831 9.75467 26.9997 8.85216 26.9997 7.94072C26.9997 7.02928 26.831 6.12677 26.5033 5.28475C26.1756 4.44273 25.6953 3.6777 25.0898 3.03337Z" fill="#FF7800"/>
<path d="M25.0898 3.03337C24.4845 2.38873 23.7659 1.87736 22.975 1.52847C22.1841 1.17958 21.3364 1 20.4803 1C19.6242 1 18.7764 1.17958 17.9855 1.52847C17.1946 1.87736 16.476 2.38873 15.8708 3.03337L14.9792 3.9826C14.7817 4.19284 14.4478 4.19284 14.2503 3.9826L13.3587 3.03337C12.1362 1.73186 10.4781 1.00067 8.74924 1.00067C7.02036 1.00067 5.36228 1.73186 4.13977 3.03337C2.91727 4.33488 2.23047 6.10011 2.23047 7.94072C2.23047 9.78133 2.91727 11.5466 4.13977 12.8481L14.2503 23.612C14.4478 23.8222 14.7817 23.8222 14.9792 23.612L25.0898 12.8481C25.6953 12.2037 26.1756 11.4387 26.5033 10.5967C26.831 9.75467 26.9997 8.85216 26.9997 7.94072C26.9997 7.02928 26.831 6.12677 26.5033 5.28475C26.1756 4.44273 25.6953 3.6777 25.0898 3.03337Z" stroke="#FF7800" stroke-linecap="round" stroke-linejoin="round"/>
</g>
<defs>
<filter id="filter0_d_289_307" x="0.730469" y="0.5" width="29.7695" height="27.7697" filterUnits="userSpaceOnUse" color-interpolation-filters="sRGB">
<feFlood flood-opacity="0" result="BackgroundImageFix"/>
<feColorMatrix in="SourceAlpha" type="matrix" values="0 0 0 0 0 0 0 0 0 0 0 0 0 0 0 0 0 0 127 0" result="hardAlpha"/>
<feOffset dx="1" dy="2"/>
<feGaussianBlur stdDeviation="1"/>
<feComposite in2="hardAlpha" operator="out"/>
<feColorMatrix type="matrix" values="0 0 0 0 0 0 0 0 0 0 0 0 0 0 0 0 0 0 0.25 0"/>
<feBlend mode="normal" in2="BackgroundImageFix" result="effect1_dropShadow_289_307"/>
<feBlend mode="normal" in="SourceGraphic" in2="effect1_dropShadow_289_307" result="shape"/>
</filter>
</defs>
</svg>
