<svg width="27" height="25" viewBox="0 0 27 25" fill="none" xmlns="http://www.w3.org/2000/svg">
<path d="M23.8593 3.03337C23.2541 2.38873 22.5355 1.87736 21.7446 1.52847C20.9537 1.17958 20.1059 1 19.2498 1C18.3937 1 17.546 1.17958 16.7551 1.52847C15.9642 1.87736 15.2456 2.38873 14.6404 3.03337L13.7487 3.9826C13.5513 4.19284 13.2173 4.19284 13.0199 3.9826L12.1282 3.03337C10.9057 1.73186 9.24766 1.00067 7.51878 1.00067C5.78989 1.00067 4.13181 1.73186 2.90931 3.03337C1.6868 4.33488 1 6.10011 1 7.94072C1 9.78133 1.6868 11.5466 2.90931 12.8481L13.0199 23.612C13.2173 23.8222 13.5513 23.8222 13.7487 23.612L23.8593 12.8481C24.4648 12.2037 24.9451 11.4387 25.2728 10.5967C25.6006 9.75467 25.7692 8.85216 25.7692 7.94072C25.7692 7.02928 25.6006 6.12677 25.2728 5.28475C24.9451 4.44273 24.4648 3.6777 23.8593 3.03337Z" stroke="#FF7800" stroke-linecap="round" stroke-linejoin="round"/>
</svg>
