<svg width="29" height="40" viewBox="0 0 29 40" fill="none" xmlns="http://www.w3.org/2000/svg">
<g clip-path="url(#clip0_1744_144)">
<path d="M28.3497 37.116L21.085 17.6212H11.9746L20.3098 40L23.381 36.2013L28.3497 37.116Z" fill="#FF7800"/>
<path d="M0 37.116L7.26467 17.6212H16.375L8.03987 40L4.96862 36.2013L0 37.116Z" fill="#FF7800"/>
<path d="M14.4186 28.8106C22.3818 28.8106 28.8372 22.3611 28.8372 14.4053C28.8372 6.44948 22.3818 0 14.4186 0C6.45543 0 0 6.44948 0 14.4053C0 22.3611 6.45543 28.8106 14.4186 28.8106Z" fill="#F9AF78"/>
</g>
<path d="M14.5462 20.6177C11.7513 20.6177 9.74741 19.0708 9.69468 16.856H12.3666C12.4193 17.8052 13.3333 18.438 14.5638 18.438C15.8294 18.438 16.7435 17.7173 16.7259 16.6978C16.7435 15.6606 15.8119 14.9224 14.3177 14.9224H13.14V12.9712H14.3177C15.5658 12.9712 16.4447 12.2856 16.4447 11.2837C16.4447 10.3169 15.7064 9.64893 14.5814 9.64893C13.4564 9.64893 12.5248 10.2817 12.4896 11.2485H9.95835C9.99351 9.05127 11.9798 7.53955 14.5814 7.53955C17.2357 7.53955 19.0111 9.104 18.9935 11.1255C19.0111 12.5493 18.0091 13.5688 16.5853 13.8149V13.9204C18.4486 14.1489 19.4857 15.2915 19.4681 16.8735C19.4857 19.0532 17.4115 20.6177 14.5462 20.6177Z" fill="black"/>
<defs>
<clipPath id="clip0_1744_144">
<rect width="28.8372" height="40" fill="white"/>
</clipPath>
</defs>
</svg>
