<svg width="35" height="35" viewBox="0 0 35 35" fill="none" xmlns="http://www.w3.org/2000/svg">
<path d="M17.3229 34.202C8.0048 34.202 0.443817 26.6233 0.443817 17.3229C0.443817 8.02258 8.02255 0.443848 17.3229 0.443848C26.6233 0.443848 34.202 8.02258 34.202 17.3229C34.202 26.6233 26.6233 34.202 17.3229 34.202Z" fill="white"/>
<path d="M17.3228 0.887439C26.4102 0.887439 33.7582 8.25318 33.7582 17.3228C33.7582 26.3924 26.3924 33.7582 17.3228 33.7582C8.25319 33.7582 0.887439 26.3924 0.887439 17.3228C0.887439 8.25318 8.25319 0.887439 17.3228 0.887439ZM17.3228 0C7.77397 0 0 7.77396 0 17.3228C0 26.8717 7.77397 34.6456 17.3228 34.6456C26.8717 34.6456 34.6456 26.8717 34.6456 17.3228C34.6456 7.77396 26.8717 0 17.3228 0Z" fill="#F15A29"/>
<path d="M17.323 31.2204C24.9982 31.2204 31.2203 24.9983 31.2203 17.3231C31.2203 9.64781 24.9982 3.42578 17.323 3.42578C9.6477 3.42578 3.42566 9.64781 3.42566 17.3231C3.42566 24.9983 9.6477 31.2204 17.323 31.2204Z" fill="#FF7800"/>
<path d="M22.4168 13.0456C22.0264 12.3356 21.4584 11.7677 20.6952 11.3772C19.932 10.9867 19.0446 10.7915 17.9974 10.7915H13.01C12.7437 10.7915 12.5308 11.0045 12.5308 11.2707V24.2983C12.5308 24.5646 12.7437 24.7775 13.01 24.7775H14.9446C15.2108 24.7775 15.4238 24.5646 15.4238 24.2983V20.6953C15.4238 20.4291 15.6368 20.2161 15.903 20.2161H17.9264C18.9913 20.2161 19.8965 20.0209 20.6597 19.6304C21.4229 19.2399 22.0086 18.6897 22.3991 17.9798C22.8073 17.2698 23.0025 16.4534 23.0025 15.5304C23.0025 14.6075 22.8073 13.7911 22.4168 13.0634V13.0456ZM19.7368 16.7551C19.5415 17.1101 19.2576 17.3763 18.8848 17.5715C18.4944 17.7668 18.0329 17.8733 17.4649 17.8733H15.903C15.6368 17.8733 15.4238 17.6603 15.4238 17.3941V13.6491C15.4238 13.3828 15.6368 13.1698 15.903 13.1698H17.4649C18.0329 13.1698 18.5121 13.2586 18.8848 13.4538C19.2753 13.6491 19.5593 13.9153 19.7368 14.2703C19.932 14.6252 20.0208 15.0335 20.0208 15.5127C20.0208 15.9919 19.932 16.4001 19.7368 16.7551Z" fill="white"/>
</svg>
