<svg width="29" height="40" viewBox="0 0 29 40" fill="none" xmlns="http://www.w3.org/2000/svg">
<g clip-path="url(#clip0_1744_112)">
<path d="M28.4307 37.116L21.166 17.6212H12.0557L20.3908 40L23.4621 36.2013L28.4307 37.116Z" fill="#FF7800"/>
<path d="M0.0810547 37.116L7.34573 17.6212H16.4561L8.12092 40L5.04968 36.2013L0.0810547 37.116Z" fill="#FF7800"/>
<path d="M14.4997 28.8106C22.4628 28.8106 28.9183 22.3611 28.9183 14.4053C28.9183 6.44948 22.4628 0 14.4997 0C6.53648 0 0.0810547 6.44948 0.0810547 14.4053C0.0810547 22.3611 6.53648 28.8106 14.4997 28.8106Z" fill="#F7EA4C"/>
</g>
<path d="M16.7998 7.71533V20.4419H14.1455V10.229H14.0752L11.1572 12.0571V9.71924L14.3037 7.71533H16.7998Z" fill="black"/>
<defs>
<clipPath id="clip0_1744_112">
<rect width="28.8372" height="40" fill="white" transform="translate(0.0810547)"/>
</clipPath>
</defs>
</svg>
