<svg width="35" height="33" viewBox="0 0 35 33" fill="none" xmlns="http://www.w3.org/2000/svg">
<path d="M17.2637 0.888123C17.4483 0.521005 17.9724 0.521005 18.1571 0.888123L22.9355 10.3889C23.009 10.5351 23.1493 10.636 23.3112 10.6592L33.9822 12.19C34.3951 12.2492 34.5582 12.7581 34.2567 13.0463L26.5481 20.415C26.4275 20.5303 26.3724 20.6982 26.4011 20.8625L28.2218 31.2812C28.293 31.6884 27.8673 32.0012 27.5 31.8116L17.9397 26.8773C17.7958 26.8031 17.6249 26.8031 17.4811 26.8773L7.92077 31.8116C7.55342 32.0012 7.12775 31.6884 7.19892 31.2812L9.01967 20.8625C9.0484 20.6982 8.99324 20.5303 8.87263 20.415L1.16405 13.0463C0.862545 12.7581 1.02568 12.2492 1.43855 12.19L12.1095 10.6592C12.2714 10.636 12.4117 10.5351 12.4852 10.3889L17.2637 0.888123Z" fill="#B9B9B9" stroke="#B9B9B9" stroke-linecap="round" stroke-linejoin="round"/>
</svg>
